<svg xmlns="http://www.w3.org/2000/svg" viewBox="0 0 795 656">
  <g fill-rule="evenodd">
    <path d="M 67.1 633.5 L 67.1 638.5 L 226.1 638.5 L 223.6 628.5 L 213.7 618.6 L 213.7 611.2 L 208.7 608.7 L 208.7 603.7 L 198.8 596.2 L 196.3 588.8 L 191.3 586.3 L 191.3 581.3 L 188.8 581.3 L 183.8 573.9 L 94.4 573.9 L 84.5 591.3 L 84.5 596.2 L 79.5 603.7 L 74.5 621.1 Z" fill="#350663"/>
    <path d="M 14.9 382.6 L 14.9 474.5 L 96.9 474.5 L 104.3 462.1 L 104.3 442.2 L 94.4 434.8 L 87.0 422.3 L 87.0 417.4 L 82.0 417.4 L 79.5 414.9 L 79.5 409.9 L 74.5 409.9 L 67.1 402.5 L 64.6 382.6 Z" fill="#350663"/>
    <path d="M 208.7 496.9 L 206.2 506.8 L 201.2 514.3 L 201.2 519.2 L 193.8 531.7 L 193.8 544.1 L 188.8 546.6 L 188.8 556.5 L 183.8 559.0 L 183.8 571.4 L 186.3 576.4 L 191.3 576.4 L 193.8 578.9 L 193.8 586.3 L 196.3 586.3 L 201.2 596.2 L 211.2 603.7 L 211.2 608.7 L 216.1 611.2 L 216.1 618.6 L 226.1 628.5 L 233.5 628.5 L 236.0 626.1 L 241.0 626.1 L 241.0 618.6 L 243.5 613.6 L 248.4 611.2 L 248.4 606.2 L 250.9 603.7 L 250.9 593.8 L 255.9 591.3 L 260.9 581.3 L 260.9 576.4 L 265.8 568.9 L 265.8 564.0 L 258.4 564.0 L 253.4 556.5 L 253.4 544.1 L 255.9 541.6 L 260.9 541.6 L 260.9 531.7 L 258.4 529.2 L 248.4 529.2 L 246.0 526.7 L 243.5 509.3 L 241.0 506.8 L 236.0 506.8 L 233.5 501.8 L 226.1 501.8 L 218.6 496.9 Z M 243.5 529.2 L 248.4 529.2 L 250.9 531.7 L 250.9 541.6 L 248.4 544.1 L 243.5 544.1 L 241.0 541.6 L 241.0 531.7 Z" fill="#35135d"/>
    <path d="M 216.1 479.5 L 216.1 484.5 L 221.1 486.9 L 231.0 484.5 L 231.0 479.5 Z" fill="#35135d"/>
    <path d="M 144.1 469.5 L 144.1 474.5 L 149.1 474.5 L 149.1 469.5 Z" fill="#35135d"/>
    <path d="M 141.6 444.7 L 139.1 457.1 L 156.5 459.6 L 156.5 452.2 L 151.5 452.2 L 149.1 449.7 L 149.1 444.7 Z" fill="#35135d"/>
    <path d="M 67.1 387.6 L 72.0 405.0 L 77.0 405.0 L 82.0 409.9 L 82.0 414.9 L 87.0 414.9 L 89.4 417.4 L 89.4 422.3 L 96.9 434.8 L 101.9 434.8 L 99.4 417.4 L 104.3 414.9 L 104.3 382.6 L 89.4 382.6 L 87.0 387.6 L 82.0 387.6 L 79.5 385.1 Z" fill="#35135d"/>
    <path d="M 144.1 221.1 L 134.2 218.6 L 131.7 223.6 L 109.3 223.6 L 109.3 280.7 L 126.7 280.7 L 129.2 283.2 L 136.6 283.2 L 139.1 280.7 L 154.0 280.7 L 156.5 275.8 L 161.5 275.8 L 161.5 255.9 L 156.5 255.9 L 151.5 248.4 L 146.6 248.4 L 139.1 241.0 L 139.1 233.5 L 144.1 231.0 Z" fill="#35135d"/>
    <path d="M 114.3 208.7 L 114.3 213.7 L 119.2 213.7 L 119.2 208.7 Z" fill="#35135d"/>
    <path d="M 109.3 191.3 L 109.3 196.3 L 124.2 196.3 L 124.2 191.3 Z" fill="#35135d"/>
    <path d="M 221.1 491.9 L 221.1 496.9 L 228.6 496.9 L 236.0 501.8 L 241.0 501.8 L 246.0 511.8 L 250.9 514.3 L 253.4 519.2 L 258.4 519.2 L 260.9 521.7 L 263.3 544.1 L 258.4 546.6 L 258.4 554.0 L 268.3 556.5 L 268.3 534.1 L 280.7 526.7 L 285.7 514.3 L 285.7 506.8 L 290.7 504.3 L 290.7 494.4 L 295.6 491.9 L 295.6 482.0 L 241.0 482.0 L 238.5 486.9 L 231.0 486.9 L 228.6 491.9 Z" fill="#3e2065"/>
    <path d="M 141.6 459.6 L 141.6 464.6 L 146.6 464.6 L 151.5 469.5 L 156.5 469.5 L 156.5 462.1 Z" fill="#3e2065"/>
    <path d="M 320.5 454.6 L 318.0 469.5 L 337.9 469.5 L 337.9 459.6 L 332.9 459.6 L 327.9 454.6 Z" fill="#3e2065"/>
    <path d="M 330.4 424.8 L 327.9 437.2 L 337.9 437.2 L 335.4 424.8 Z" fill="#3e2065"/>
    <path d="M 173.9 382.6 L 173.9 387.6 L 171.4 390.0 L 166.5 390.0 L 164.0 395.0 L 164.0 400.0 L 161.5 402.5 L 161.5 417.4 L 159.0 419.9 L 154.0 419.9 L 154.0 429.8 L 151.5 432.3 L 146.6 432.3 L 146.6 442.2 L 161.5 449.7 L 161.5 454.6 L 166.5 457.1 L 166.5 469.5 L 171.4 469.5 L 173.9 474.5 L 178.9 474.5 L 181.4 469.5 L 211.2 469.5 L 218.6 459.6 L 218.6 449.7 L 226.1 444.7 L 226.1 434.8 L 231.0 432.3 L 231.0 427.3 L 226.1 427.3 L 221.1 419.9 L 216.1 419.9 L 208.7 409.9 L 208.7 402.5 L 211.2 400.0 L 218.6 400.0 L 218.6 382.6 Z" fill="#3e2065"/>
    <path d="M 149.1 233.5 L 151.5 246.0 L 156.5 246.0 L 156.5 233.5 Z" fill="#3e2065"/>
    <path d="M 154.0 193.8 L 141.6 196.3 L 139.1 201.2 L 116.8 201.2 L 116.8 206.2 L 119.2 206.2 L 126.7 216.1 L 149.1 218.6 L 149.1 208.7 L 154.0 206.2 Z" fill="#3e2065"/>
    <path d="M 253.4 181.4 L 253.4 186.3 L 258.4 186.3 L 258.4 181.4 Z" fill="#3e2065"/>
    <path d="M 347.8 387.6 L 347.8 400.0 L 345.3 402.5 L 340.4 402.5 L 340.4 405.0 L 335.4 407.4 L 335.4 422.3 L 342.8 434.8 L 342.8 442.2 L 337.9 444.7 L 337.9 454.6 L 342.8 457.1 L 350.3 469.5 L 402.5 469.5 L 409.9 474.5 L 419.9 474.5 L 419.9 407.4 L 407.4 405.0 L 397.5 390.0 L 392.5 387.6 L 392.5 382.6 L 365.2 382.6 L 362.7 385.1 Z" fill="#4e2170"/>
    <path d="M 243.5 382.6 L 228.6 382.6 L 223.6 392.5 L 223.6 400.0 L 218.6 402.5 L 216.1 407.4 L 216.1 412.4 L 226.1 422.3 L 233.5 422.3 L 233.5 407.4 L 236.0 405.0 L 241.0 405.0 Z" fill="#4e2170"/>
    <path d="M 347.8 355.3 L 342.8 355.3 L 340.4 350.3 L 323.0 350.3 L 320.5 347.8 L 315.5 347.8 L 315.5 352.8 L 313.0 355.3 L 303.1 355.3 L 300.6 357.8 L 278.2 357.8 L 275.8 355.3 L 275.8 350.3 L 268.3 350.3 L 268.3 360.2 L 263.3 362.7 L 263.3 377.6 L 280.7 377.6 L 283.2 375.1 L 303.1 375.1 L 305.6 377.6 L 345.3 375.1 Z" fill="#4e2170"/>
    <path d="M 352.8 337.9 L 352.8 342.8 L 357.8 342.8 L 357.8 337.9 Z" fill="#4e2170"/>
    <path d="M 268.3 131.7 L 268.3 139.1 L 263.3 141.6 L 263.3 151.5 L 258.4 159.0 L 258.4 166.5 L 253.4 168.9 L 253.4 178.9 L 263.3 178.9 L 265.8 181.4 L 265.8 186.3 L 325.5 186.3 L 325.5 181.4 L 318.0 181.4 L 315.5 176.4 L 308.1 176.4 L 305.6 173.9 L 305.6 166.5 L 300.6 164.0 L 300.6 159.0 L 290.7 159.0 L 288.2 156.5 L 283.2 156.5 L 280.7 154.0 L 280.7 149.1 L 270.8 149.1 L 268.3 146.6 L 268.3 141.6 L 273.3 139.1 L 273.3 131.7 Z" fill="#4e2170"/>
    <path d="M 591.3 479.5 L 581.3 479.5 L 578.9 482.0 L 549.0 482.0 L 549.0 499.4 L 554.0 501.8 L 554.0 511.8 L 559.0 511.8 L 566.4 504.3 L 583.8 494.4 L 583.8 489.4 L 591.3 484.5 Z" fill="#602875"/>
    <path d="M 407.4 387.6 L 407.4 400.0 L 419.9 400.0 L 419.9 387.6 Z" fill="#602875"/>
    <path d="M 273.3 347.8 L 275.8 347.8 L 278.2 352.8 L 290.7 352.8 L 293.2 355.3 L 300.6 355.3 L 308.1 345.3 L 340.4 347.8 L 342.8 352.8 L 350.3 352.8 L 350.3 337.9 L 365.2 325.5 L 367.7 313.0 L 362.7 310.5 L 350.3 310.5 L 350.3 315.5 L 347.8 318.0 L 340.4 318.0 L 337.9 313.0 L 332.9 313.0 L 330.4 310.5 L 325.5 310.5 L 323.0 313.0 L 295.6 313.0 L 293.2 310.5 L 283.2 310.5 L 283.2 327.9 L 278.2 330.4 L 278.2 340.4 L 273.3 342.8 Z" fill="#602875"/>
    <path d="M 288.2 79.5 L 290.7 96.9 L 278.2 104.3 L 278.2 124.2 L 275.8 126.7 L 275.8 131.7 L 280.7 139.1 L 288.2 141.6 L 290.7 144.1 L 290.7 149.1 L 298.1 151.5 L 310.5 166.5 L 310.5 171.4 L 313.0 171.4 L 318.0 178.9 L 325.5 178.9 L 330.4 186.3 L 350.3 186.3 L 352.8 183.8 L 362.7 183.8 L 362.7 176.4 L 357.8 173.9 L 357.8 164.0 L 350.3 164.0 L 342.8 154.0 L 342.8 149.1 L 340.4 149.1 L 337.9 144.1 L 330.4 139.1 L 327.9 121.7 L 318.0 121.7 L 315.5 119.2 L 315.5 109.3 L 313.0 104.3 L 308.1 104.3 L 305.6 101.9 L 305.6 96.9 L 293.2 84.5 L 293.2 79.5 Z" fill="#602875"/>
    <path d="M 623.6 482.0 L 608.7 482.0 L 598.7 489.4 L 591.3 489.4 L 591.3 494.4 L 588.8 496.9 L 581.3 496.9 L 566.4 506.8 L 559.0 514.3 L 559.0 521.7 L 564.0 524.2 L 564.0 531.7 L 566.4 534.1 L 573.9 534.1 L 576.4 529.2 L 583.8 529.2 L 591.3 524.2 L 591.3 519.2 L 596.2 516.8 L 596.2 511.8 L 598.7 509.3 L 603.7 509.3 L 603.7 506.8 L 611.2 501.8 L 618.6 501.8 L 623.6 489.4 Z" fill="#702779"/>
    <path d="M 288.2 303.1 L 290.7 303.1 L 295.6 310.5 L 350.3 308.1 L 355.3 303.1 L 367.7 303.1 L 367.7 300.6 L 372.7 298.1 L 372.7 288.2 L 362.7 288.2 L 360.2 290.7 L 355.3 290.7 L 352.8 288.2 L 315.5 288.2 L 313.0 290.7 L 293.2 290.7 L 288.2 298.1 Z" fill="#702779"/>
    <path d="M 414.9 129.2 L 414.9 144.1 L 419.9 144.1 L 419.9 129.2 Z" fill="#702779"/>
    <path d="M 308.1 34.8 L 303.1 42.2 L 303.1 52.2 L 298.1 54.7 L 295.6 84.5 L 318.0 109.3 L 323.0 109.3 L 325.5 111.8 L 325.5 116.8 L 335.4 124.2 L 335.4 131.7 L 340.4 134.2 L 342.8 141.6 L 355.3 146.6 L 355.3 154.0 L 360.2 156.5 L 360.2 173.9 L 375.1 171.4 L 377.6 176.4 L 387.6 181.4 L 387.6 186.3 L 414.9 186.3 L 417.4 183.8 L 417.4 166.5 L 414.9 166.5 L 407.4 159.0 L 405.0 151.5 L 400.0 149.1 L 400.0 134.2 L 385.1 134.2 L 377.6 121.7 L 377.6 116.8 L 370.2 116.8 L 367.7 114.3 L 367.7 106.8 L 362.7 104.3 L 360.2 94.4 L 355.3 94.4 L 345.3 89.4 L 340.4 79.5 L 330.4 74.5 L 330.4 67.1 L 323.0 64.6 L 315.5 52.2 L 310.5 49.7 L 310.5 42.2 L 313.0 39.8 L 318.0 39.8 L 318.0 34.8 Z" fill="#702779"/>
    <path d="M 638.5 509.3 L 636.0 506.8 L 631.0 506.8 L 628.5 504.3 L 628.5 499.4 L 621.1 499.4 L 613.6 509.3 L 606.2 509.3 L 603.7 511.8 L 603.7 516.8 L 598.7 521.7 L 593.8 521.7 L 593.8 526.7 L 591.3 529.2 L 576.4 531.7 L 573.9 536.6 L 568.9 536.6 L 568.9 544.1 L 573.9 546.6 L 573.9 561.5 L 578.9 561.5 L 583.8 554.0 L 596.2 554.0 L 601.2 551.5 L 601.2 546.6 L 618.6 534.1 L 623.6 534.1 L 626.1 531.7 L 631.0 531.7 L 636.0 526.7 L 641.0 526.7 Z" fill="#7e2a7c"/>
    <path d="M 464.6 409.9 L 452.2 409.9 L 452.2 412.4 L 444.7 417.4 L 442.2 422.3 L 427.3 424.8 L 424.8 429.8 L 424.8 469.5 L 432.3 469.5 L 434.8 474.5 L 452.2 474.5 L 452.2 464.6 L 457.1 459.6 L 464.6 457.1 L 464.6 447.2 L 474.5 434.8 L 474.5 419.9 L 472.0 414.9 L 467.1 414.9 Z" fill="#7e2a7c"/>
    <path d="M 318.0 253.4 L 308.1 255.9 L 308.1 270.8 L 305.6 273.3 L 300.6 273.3 L 298.1 283.2 L 303.1 285.7 L 318.0 285.7 L 318.0 275.8 L 320.5 273.3 L 320.5 255.9 Z" fill="#7e2a7c"/>
    <path d="M 315.5 17.4 L 313.0 32.3 L 318.0 32.3 L 320.5 34.8 L 320.5 39.8 L 315.5 42.2 L 318.0 54.7 L 325.5 54.7 L 327.9 57.1 L 327.9 62.1 L 337.9 67.1 L 345.3 67.1 L 355.3 74.5 L 355.3 87.0 L 357.8 87.0 L 360.2 91.9 L 362.7 91.9 L 372.7 101.9 L 372.7 109.3 L 380.1 114.3 L 385.1 124.2 L 392.5 124.2 L 407.4 131.7 L 407.4 149.1 L 409.9 151.5 L 409.9 159.0 L 412.4 161.5 L 417.4 161.5 L 417.4 154.0 L 412.4 151.5 L 412.4 129.2 L 417.4 124.2 L 417.4 101.9 L 419.9 99.4 L 419.9 89.4 L 414.9 82.0 L 409.9 82.0 L 395.0 69.6 L 395.0 57.1 L 390.0 57.1 L 387.6 52.2 L 385.1 52.2 L 380.1 44.7 L 375.1 42.2 L 375.1 29.8 L 372.7 27.3 L 367.7 27.3 L 365.2 22.4 L 357.8 17.4 L 357.8 14.9 Z" fill="#7e2a7c"/>
    <path d="M 648.4 534.1 L 643.5 534.1 L 641.0 529.2 L 636.0 529.2 L 631.0 534.1 L 618.6 536.6 L 611.2 541.6 L 603.7 554.0 L 598.7 554.0 L 591.3 561.5 L 581.3 561.5 L 583.8 576.4 L 588.8 578.9 L 588.8 598.7 L 608.7 596.2 L 618.6 591.3 L 623.6 583.8 L 633.5 583.8 L 633.5 578.9 L 638.5 573.9 L 643.5 573.9 L 648.4 566.4 L 658.4 566.4 Z" fill="#8f3081"/>
    <path d="M 424.8 382.6 L 424.8 419.9 L 442.2 419.9 L 442.2 414.9 L 444.7 412.4 L 449.7 412.4 L 452.2 407.4 L 457.1 407.4 L 462.1 400.0 L 467.1 400.0 L 469.5 405.0 L 474.5 407.4 L 474.5 417.4 L 477.0 419.9 L 477.0 439.7 L 474.5 444.7 L 469.5 447.2 L 467.1 457.1 L 457.1 462.1 L 457.1 469.5 L 472.0 469.5 L 474.5 472.0 L 501.8 472.0 L 504.3 474.5 L 534.1 474.5 L 531.7 462.1 L 524.2 449.7 L 519.2 432.3 L 511.8 427.3 L 511.8 422.3 L 506.8 414.9 L 506.8 402.5 L 501.8 400.0 L 496.9 387.6 L 472.0 387.6 L 469.5 382.6 Z" fill="#8f3081"/>
    <path d="M 340.4 188.8 L 327.9 196.3 L 327.9 201.2 L 325.5 203.7 L 325.5 228.6 L 313.0 236.0 L 313.0 248.4 L 323.0 255.9 L 323.0 273.3 L 320.5 275.8 L 320.5 280.7 L 325.5 283.2 L 377.6 283.2 L 377.6 243.5 L 372.7 241.0 L 372.7 228.6 L 367.7 226.1 L 365.2 213.7 L 362.7 211.2 L 362.7 203.7 L 370.2 198.8 L 370.2 188.8 Z" fill="#8f3081"/>
    <path d="M 370.2 17.4 L 370.2 24.8 L 377.6 24.8 L 380.1 27.3 L 380.1 42.2 L 382.6 47.2 L 390.0 47.2 L 392.5 49.7 L 392.5 54.7 L 400.0 59.6 L 402.5 72.0 L 409.9 79.5 L 419.9 79.5 L 419.9 19.9 L 417.4 14.9 Z" fill="#8f3081"/>
    <path d="M 663.3 571.4 L 653.4 571.4 L 650.9 573.9 L 645.9 573.9 L 641.0 578.9 L 636.0 578.9 L 636.0 586.3 L 633.5 588.8 L 628.5 588.8 L 618.6 601.2 L 598.7 608.7 L 603.7 633.5 L 608.7 633.5 L 611.2 638.5 L 633.5 638.5 L 638.5 628.5 L 638.5 621.1 L 641.0 618.6 L 653.4 618.6 L 653.4 611.2 L 660.8 606.2 L 665.8 606.2 L 665.8 601.2 L 670.8 598.7 L 670.8 591.3 L 665.8 583.8 Z" fill="#aa3882"/>
    <path d="M 571.4 327.9 L 573.9 337.9 L 578.9 340.4 L 578.9 352.8 L 583.8 360.2 L 583.8 365.2 L 588.8 365.2 L 586.3 347.8 L 578.9 342.8 L 578.9 332.9 L 576.4 327.9 Z" fill="#aa3882"/>
    <path d="M 556.5 285.7 L 556.5 293.2 L 559.0 295.6 L 564.0 313.0 L 568.9 313.0 L 568.9 308.1 L 564.0 300.6 L 564.0 295.6 L 568.9 290.7 L 568.9 285.7 Z" fill="#aa3882"/>
    <path d="M 427.3 188.8 L 427.3 193.8 L 432.3 198.8 L 432.3 206.2 L 437.2 216.1 L 439.7 231.0 L 442.2 231.0 L 447.2 238.5 L 447.2 243.5 L 452.2 250.9 L 452.2 255.9 L 459.6 268.3 L 459.6 275.8 L 462.1 278.2 L 477.0 278.2 L 479.5 283.2 L 546.6 283.2 L 546.6 273.3 L 541.6 265.8 L 541.6 260.9 L 536.6 253.4 L 534.1 243.5 L 526.7 243.5 L 524.2 241.0 L 526.7 223.6 L 524.2 221.1 L 524.2 216.1 L 516.8 216.1 L 514.3 213.7 L 516.8 201.2 L 511.8 198.8 L 511.8 188.8 Z M 501.8 198.8 L 504.3 196.3 L 509.3 196.3 L 511.8 198.8 L 511.8 203.7 L 509.3 206.2 L 504.3 206.2 L 501.8 203.7 Z" fill="#aa3882"/>
    <path d="M 417.4 188.8 L 405.0 188.8 L 402.5 191.3 L 375.1 191.3 L 375.1 208.7 L 367.7 213.7 L 367.7 221.1 L 370.2 226.1 L 375.1 228.6 L 375.1 233.5 L 382.6 248.4 L 380.1 268.3 L 385.1 268.3 L 390.0 258.4 L 390.0 246.0 L 395.0 238.5 L 400.0 238.5 L 405.0 226.1 L 405.0 218.6 L 409.9 213.7 L 409.9 206.2 L 405.0 203.7 L 405.0 198.8 L 407.4 196.3 L 417.4 196.3 Z" fill="#aa3882"/>
    <path d="M 422.3 87.0 L 422.3 91.9 L 434.8 91.9 L 434.8 87.0 Z" fill="#aa3882"/>
    <path d="M 675.8 601.2 L 668.3 601.2 L 668.3 606.2 L 665.8 608.7 L 660.8 608.7 L 650.9 623.6 L 645.9 623.6 L 643.5 636.0 L 648.4 636.0 L 650.9 638.5 L 665.8 638.5 L 668.3 633.5 L 680.7 631.0 L 680.7 616.1 L 678.2 613.6 Z" fill="#c53b85"/>
    <path d="M 633.5 482.0 L 633.5 486.9 L 643.5 506.8 L 658.4 554.0 L 663.3 554.0 L 663.3 541.6 L 668.3 531.7 L 673.3 529.2 L 675.8 496.9 L 683.2 491.9 L 683.2 484.5 L 668.3 484.5 L 665.8 479.5 L 643.5 479.5 L 641.0 482.0 Z" fill="#c53b85"/>
    <path d="M 571.4 290.7 L 568.9 305.6 L 571.4 308.1 L 573.9 323.0 L 578.9 325.5 L 581.3 340.4 L 588.8 347.8 L 588.8 355.3 L 591.3 357.8 L 591.3 375.1 L 655.9 377.6 L 655.9 370.2 L 650.9 367.7 L 648.4 355.3 L 641.0 350.3 L 641.0 327.9 L 636.0 327.9 L 633.5 325.5 L 633.5 318.0 L 626.1 310.5 L 626.1 303.1 L 621.1 298.1 L 623.6 285.7 L 606.2 285.7 L 603.7 288.2 L 583.8 288.2 L 581.3 290.7 Z" fill="#c53b85"/>
    <path d="M 491.9 119.2 L 491.9 126.7 L 496.9 129.2 L 496.9 136.6 L 504.3 149.1 L 504.3 156.5 L 511.8 168.9 L 511.8 176.4 L 516.8 186.3 L 544.1 186.3 L 544.1 178.9 L 539.1 176.4 L 536.6 166.5 L 531.7 166.5 L 521.7 161.5 L 521.7 149.1 L 516.8 146.6 L 511.8 136.6 L 506.8 136.6 L 504.3 134.2 L 504.3 129.2 L 499.4 129.2 L 496.9 126.7 L 496.9 119.2 Z" fill="#c53b85"/>
    <path d="M 427.3 14.9 L 424.8 19.9 L 424.8 84.5 L 434.8 84.5 L 439.7 91.9 L 479.5 91.9 L 479.5 87.0 L 472.0 87.0 L 469.5 84.5 L 469.5 67.1 L 462.1 54.7 L 462.1 34.8 L 457.1 34.8 L 452.2 27.3 L 444.7 27.3 L 442.2 24.8 L 442.2 14.9 Z" fill="#c53b85"/>
    <path d="M 715.5 482.0 L 690.7 482.0 L 690.7 496.9 L 683.2 501.8 L 678.2 501.8 L 678.2 506.8 L 683.2 509.3 L 683.2 516.8 L 680.7 519.2 L 675.8 519.2 L 675.8 529.2 L 670.8 531.7 L 665.8 541.6 L 665.8 549.0 L 670.8 549.0 L 673.3 551.5 L 673.3 556.5 L 665.8 561.5 L 665.8 566.4 L 668.3 568.9 L 670.8 583.8 L 675.8 591.3 L 675.8 598.7 L 678.2 601.2 L 680.7 613.6 L 685.7 613.6 L 690.7 603.7 L 698.1 559.0 L 708.0 554.0 L 708.0 531.7 L 713.0 529.2 L 710.5 516.8 L 715.5 509.3 L 720.5 509.3 L 720.5 501.8 L 715.5 496.9 L 715.5 491.9 L 718.0 489.4 L 718.0 484.5 Z" fill="#d63d87"/>
    <path d="M 626.1 290.7 L 623.6 293.2 L 623.6 298.1 L 631.0 305.6 L 631.0 313.0 L 643.5 327.9 L 645.9 350.3 L 653.4 360.2 L 653.4 367.7 L 658.4 370.2 L 658.4 375.1 L 673.3 377.6 L 673.3 372.7 L 668.3 362.7 L 663.3 360.2 L 663.3 345.3 L 660.8 342.8 L 660.8 337.9 L 653.4 332.9 L 653.4 320.5 L 650.9 318.0 L 650.9 313.0 L 645.9 308.1 L 645.9 300.6 L 638.5 288.2 Z" fill="#d63d87"/>
    <path d="M 529.2 24.8 L 529.2 29.8 L 534.1 29.8 L 534.1 24.8 Z" fill="#d63d87"/>
    <path d="M 449.7 17.4 L 449.7 24.8 L 457.1 27.3 L 467.1 39.8 L 464.6 54.7 L 469.5 54.7 L 472.0 57.1 L 472.0 62.1 L 477.0 64.6 L 477.0 84.5 L 482.0 87.0 L 482.0 91.9 L 489.4 91.9 L 491.9 94.4 L 491.9 109.3 L 494.4 114.3 L 499.4 116.8 L 501.8 126.7 L 516.8 129.2 L 524.2 136.6 L 526.7 146.6 L 531.7 149.1 L 531.7 156.5 L 536.6 159.0 L 539.1 171.4 L 544.1 171.4 L 546.6 173.9 L 549.0 183.8 L 578.9 183.8 L 581.3 186.3 L 593.8 186.3 L 593.8 178.9 L 588.8 171.4 L 583.8 151.5 L 576.4 151.5 L 571.4 144.1 L 564.0 139.1 L 564.0 126.7 L 568.9 124.2 L 568.9 116.8 L 564.0 116.8 L 561.5 121.7 L 554.0 121.7 L 551.5 119.2 L 549.0 109.3 L 544.1 106.8 L 544.1 101.9 L 539.1 99.4 L 529.2 84.5 L 526.7 77.0 L 521.7 72.0 L 521.7 67.1 L 516.8 64.6 L 514.3 52.2 L 506.8 47.2 L 506.8 39.8 L 501.8 37.3 L 499.4 24.8 L 496.9 22.4 L 491.9 22.4 L 489.4 17.4 Z" fill="#d63d87"/>
    <path d="M 723.0 511.8 L 718.0 514.3 L 715.5 536.6 L 710.5 539.1 L 710.5 554.0 L 700.6 561.5 L 700.6 586.3 L 695.6 593.8 L 695.6 603.7 L 690.7 606.2 L 688.2 633.5 L 690.7 636.0 L 772.6 636.0 L 772.6 626.1 L 770.2 623.6 L 767.7 611.2 L 762.7 606.2 L 760.2 591.3 L 755.2 586.3 L 752.8 573.9 L 745.3 561.5 L 745.3 554.0 L 730.4 524.2 L 727.9 511.8 Z" fill="#e83e89"/>
    <path d="M 648.4 191.3 L 645.9 196.3 L 645.9 265.8 L 648.4 268.3 L 648.4 280.7 L 698.1 280.7 L 700.6 278.2 L 742.8 280.7 L 735.4 255.9 L 727.9 243.5 L 727.9 238.5 L 720.5 226.1 L 720.5 218.6 L 708.0 193.8 Z" fill="#e83e89"/>
    <path d="M 499.4 17.4 L 501.8 32.3 L 504.3 37.3 L 509.3 39.8 L 509.3 47.2 L 516.8 52.2 L 519.2 64.6 L 524.2 67.1 L 524.2 72.0 L 529.2 79.5 L 536.6 79.5 L 544.1 87.0 L 541.6 99.4 L 546.6 101.9 L 546.6 106.8 L 549.0 106.8 L 554.0 114.3 L 559.0 114.3 L 559.0 96.9 L 556.5 96.9 L 551.5 89.4 L 551.5 77.0 L 539.1 72.0 L 539.1 57.1 L 534.1 52.2 L 534.1 32.3 L 529.2 32.3 L 526.7 29.8 L 526.7 17.4 Z" fill="#e83e89"/>
  </g>
</svg>
